<?xml version="1.0" encoding="utf-8"?>
<!-- Generator: Adobe Illustrator 17.0.0, SVG Export Plug-In . SVG Version: 6.00 Build 0)  -->
<!DOCTYPE svg PUBLIC "-//W3C//DTD SVG 1.1//EN" "http://www.w3.org/Graphics/SVG/1.1/DTD/svg11.dtd">
<svg version="1.1" id="Capa_1" xmlns="http://www.w3.org/2000/svg" xmlns:xlink="http://www.w3.org/1999/xlink" x="0px" y="0px"
	 width="500px" height="500px" viewBox="-203.58 -203.58 500 500" enable-background="new -203.58 -203.58 500 500"
	 xml:space="preserve">
<g>
	<g>
		<path d="M280.26-194.16h-467.69c-8.91,0-16.16,7.25-16.16,16.16v71.82c0,8.91,7.25,16.16,16.16,16.16h467.68
			c8.9,0,16.16-7.25,16.16-16.16V-178C296.42-186.91,289.17-194.16,280.26-194.16z"/>
		<path d="M280.26-5.65h-467.69c-8.91,0-16.16,7.25-16.16,16.16v71.82c0,8.91,7.25,16.16,16.16,16.16h467.68
			c8.9,0,16.16-7.25,16.16-16.16V10.51C296.42,1.6,289.17-5.65,280.26-5.65z"/>
		<path d="M280.26,182.86h-467.69c-8.91,0-16.16,7.25-16.16,16.16v71.82c0,8.91,7.25,16.16,16.16,16.16h467.68
			c8.9,0,16.16-7.25,16.16-16.16v-71.82C296.42,190.1,289.17,182.86,280.26,182.86z"/>
	</g>
</g>
</svg>
