<?xml version="1.0" encoding="utf-8"?>
<!-- Generator: Adobe Illustrator 17.0.0, SVG Export Plug-In . SVG Version: 6.00 Build 0)  -->
<!DOCTYPE svg PUBLIC "-//W3C//DTD SVG 1.1//EN" "http://www.w3.org/Graphics/SVG/1.1/DTD/svg11.dtd">
<svg version="1.1" id="Layer_1" xmlns="http://www.w3.org/2000/svg" xmlns:xlink="http://www.w3.org/1999/xlink" x="0px" y="0px"
	 width="500px" height="500px" viewBox="0 0 500 500" enable-background="new 0 0 500 500" xml:space="preserve">
<g>
	<g>
		<path fill-rule="evenodd" clip-rule="evenodd" d="M116.9,500V162.6H6.5V500H116.9L116.9,500z M61.7,116.6
			c38.5,0,62.4-26,62.4-58.3c-0.7-33-24-58.3-61.7-58.3C24.6,0,0,25.2,0,58.3c0,32.4,23.9,58.3,60.9,58.3H61.7L61.7,116.6z"/>
		<path fill-rule="evenodd" clip-rule="evenodd" d="M372.9,154.7c-49,0-75.1,22.9-91.1,43.9h-0.1l-8.3-35.9H163.1
			c1.4,31.7,0,337.4,0,337.4h110.3V311.6c0-10.1,0.7-20.1,3.7-27.3c7.9-20.1,26.1-41,56.6-41c40,0,56,30.9,56,76.3V500H500V306.6
			C500,202.9,445.6,154.7,372.9,154.7z"/>
	</g>
</g>
</svg>
