<?xml version="1.0" encoding="utf-8"?>
<!-- Generator: Adobe Illustrator 17.0.0, SVG Export Plug-In . SVG Version: 6.00 Build 0)  -->
<!DOCTYPE svg PUBLIC "-//W3C//DTD SVG 1.1//EN" "http://www.w3.org/Graphics/SVG/1.1/DTD/svg11.dtd">
<svg version="1.1" id="Layer_1" xmlns="http://www.w3.org/2000/svg" xmlns:xlink="http://www.w3.org/1999/xlink" x="0px" y="0px"
	 width="500px" height="500px" viewBox="0 0 500 500" enable-background="new 0 0 500 500" xml:space="preserve">
<path d="M476.4,143.9L476.4,143.9c0-0.1,0-0.2-0.1-0.3c-8.6-18.5-16.9-30.5-19.9-34.7c-0.3-0.4-0.5-0.8-0.8-1.2l-0.1,0
	c-0.2-0.2-0.3-0.3-0.3-0.4L250.2,225.9l-169-97.8c16.8-23.2,38.6-43.4,65.1-58.6c66.8-38.4,146-35.7,208.2,0.3l-109.8,63.2
	l-38.2-22.1c11.6-3.6,23.4-5.8,35.1-6.4l-2.4-41.6c-28.2,1.6-56.5,9.6-82.6,24.7c-16.5,9.5-28.5,20-32.7,23.8L244.6,181L428.8,75.1
	C351-4.5,226.5-24.7,125.5,33.3C51.6,75.8,24.8,141.7,24.1,143.2l205,118.6l0,195.2c-28.5-2.9-56.9-11.7-83.3-27
	c-66.7-38.6-104-108.5-104-180.4l109.7,63.5v44.1c-8.9-8.2-16.7-17.4-23.2-27.2l-34.8,23c15.6,23.6,36.6,44,62.7,59.1
	c16.5,9.6,31.6,14.7,37,16.4V289.1L9.1,182.7C-20.8,289.9,24,407.9,124.8,466.2c73.8,42.7,144.3,32.9,145.9,32.8l0-236.8l0.1-0.1
	l0.1,0.1l169.2-97.4c11.7,26,18.2,54.9,18.2,85.3c0,77.1-41.8,144.4-104,180.4V303.7l38.2-22.1c-2.6,11.9-6.6,23.2-12,33.7
	l37.3,18.7c12.7-25.3,19.8-53.7,19.8-83.9c0-19-3.1-34.7-4.3-40.2l-120.7,69.8v212.5C420.4,464.4,500,366.5,500,250
	C500,205.4,488,168.8,476.4,143.9z"/>
</svg>
