<?xml version="1.0" encoding="utf-8"?>
<!-- Generator: Adobe Illustrator 17.0.0, SVG Export Plug-In . SVG Version: 6.00 Build 0)  -->
<!DOCTYPE svg PUBLIC "-//W3C//DTD SVG 1.1//EN" "http://www.w3.org/Graphics/SVG/1.1/DTD/svg11.dtd">
<svg version="1.1" id="Layer_1" xmlns="http://www.w3.org/2000/svg" xmlns:xlink="http://www.w3.org/1999/xlink" x="0px" y="0px"
	 width="500px" height="500px" viewBox="0 0 500 500" enable-background="new 0 0 500 500" xml:space="preserve">
<path d="M236.3,293.7l-7.8-127.5c0,0-3.6,5.4-7.7,10.8c-3.9,5.1-8.4,10.2-8.4,10.2l11.4,106.6L236.3,293.7z M223.2,319.3h18.2V301
	h-18.2V319.3z M250,0C111.9,0,0,111.9,0,250c0,138.1,111.9,250,250,250c138.1,0,250-111.9,250-250C500,111.9,388.1,0,250,0z
	 M296.5,299.9v20.1h-7.1l8.4,77.3h-62.9l1.8-71.3h-12.4l-4.1,71.3h-17.9l8.4-77.3h-7.1v-20.1h15.3l-18-106.7c0,0,40-35.3,42.4-79.1
	c-0.6-1.1-1-2.4-1-3.8c0-3.8,2.7-7,6.3-7.6v89.8c-4.2,0.7-7.4,4.3-7.4,8.7c0,4.9,4,8.8,8.8,8.8c4.9,0,8.9-4,8.9-8.8
	c0-4.4-3.2-8.1-7.5-8.7v-89.8c3.6,0.6,6.4,3.8,6.4,7.6c0,1.4-0.3,2.6-1,3.8c2.4,43.8,42.4,79.1,42.4,79.1l-18,106.7H296.5z"/>
</svg>
