<?xml version="1.0" encoding="utf-8"?>
<!-- Generator: Adobe Illustrator 17.0.0, SVG Export Plug-In . SVG Version: 6.00 Build 0)  -->
<!DOCTYPE svg PUBLIC "-//W3C//DTD SVG 1.1//EN" "http://www.w3.org/Graphics/SVG/1.1/DTD/svg11.dtd">
<svg version="1.1" id="Layer_1" xmlns="http://www.w3.org/2000/svg" xmlns:xlink="http://www.w3.org/1999/xlink" x="0px" y="0px"
	 width="500px" height="500px" viewBox="0 0 500 500" enable-background="new 0 0 500 500" xml:space="preserve">
<path d="M500,59.1c-18.4,10-38.2,16.8-58.9,19.8c21.1-15.6,37.4-40.3,45.1-69.8c-19.8,14.4-41.8,24.9-65.1,30.6
	C402.3,15.2,375.7,0,346.1,0c-56.7,0-102.6,56.4-102.6,126.2c0,9.9,0.9,19.5,2.6,28.8C161,149.7,85.4,99.4,34.8,23
	C26,41.6,20.9,63.4,20.9,86.5c0,43.9,18.1,82.5,45.6,105.1c-16.8-0.6-32.6-6.2-46.4-15.7c0,0.5,0,1.1,0,1.7
	c0,61.1,35.4,112.1,82.3,123.8c-8.6,2.8-17.7,4.4-27,4.4c-6.6,0-13-0.9-19.3-2.3c13,50.1,50.9,86.6,95.8,87.7
	c-35.1,33.8-79.3,54-127.4,54c-8.3,0-16.5-0.5-24.5-1.7C45.4,479.1,99.3,500,157.2,500c188.7,0,291.9-192.3,291.9-359.2
	c0-5.5-0.1-10.9-0.3-16.3C468.8,106.7,486.2,84.4,500,59.1z"/>
</svg>
